<svg width="1024" height="1024" viewBox="0 0 1024 1024" fill="none" xmlns="http://www.w3.org/2000/svg">
<path d="M502.971 341.393C502.971 382.818 469.39 416.399 427.965 416.399C386.541 416.399 352.959 382.818 352.959 341.393C352.959 299.968 386.541 266.387 427.965 266.387C469.39 266.387 502.971 299.968 502.971 341.393Z" fill="black"/>
<path d="M315.457 842.994C315.457 884.419 281.875 918 240.451 918C199.026 918 165.445 884.419 165.445 842.994C165.445 801.57 199.026 767.988 240.451 767.988C281.875 767.988 315.457 801.57 315.457 842.994Z" fill="black"/>
<path d="M957.694 182.006C957.694 223.43 924.112 257.012 882.688 257.012C841.263 257.012 807.682 223.43 807.682 182.006C807.682 140.581 841.263 107 882.688 107C924.112 107 957.694 140.581 957.694 182.006Z" fill="black"/>
<path d="M845.185 439.838C845.185 481.263 811.604 514.844 770.179 514.844C728.755 514.844 695.173 481.263 695.173 439.838C695.173 398.414 728.755 364.832 770.179 364.832C811.604 364.832 845.185 398.414 845.185 439.838Z" fill="black"/>
<path d="M217.012 589.85C217.012 631.274 183.43 664.855 142.006 664.855C100.581 664.855 67 631.274 67 589.85C67 548.425 100.581 514.844 142.006 514.844C183.43 514.844 217.012 548.425 217.012 589.85Z" fill="black"/>
<path d="M166.602 618.16L142.005 589.85L427.965 341.393L452.562 369.703L166.602 618.16Z" fill="black"/>
<path d="M298.107 596.12L287.331 632.041L146.694 589.85L157.47 553.928L298.107 596.12Z" fill="black"/>
<path d="M860.073 152.088L882.688 182.006L287.329 632.04L264.715 602.123L860.073 152.088Z" fill="black"/>
<path d="M762.509 403.128L770.18 439.838L456.093 505.468L448.422 468.758L762.509 403.128Z" fill="black"/>
<path d="M253.921 849.639L217.011 842.995L259.202 608.601L296.112 615.245L253.921 849.639Z" fill="black"/>
</svg>
